<svg width="30" height="335" viewBox="0 0 30 335" fill="none" xmlns="http://www.w3.org/2000/svg">
<path d="M17 2C17 0.89543 16.1046 -4.82823e-08 15 0C13.8954 4.82823e-08 13 0.895431 13 2L17 2ZM13.5858 334.414C14.3668 335.195 15.6332 335.195 16.4142 334.414L29.1421 321.686C29.9232 320.905 29.9232 319.639 29.1421 318.858C28.3611 318.077 27.0948 318.077 26.3137 318.858L15 330.172L3.68631 318.858C2.90526 318.077 1.63893 318.077 0.857878 318.858C0.0768295 319.639 0.0768295 320.905 0.857878 321.686L13.5858 334.414ZM13 2L13 333L17 333L17 2L13 2Z" fill="url(#paint0_linear_53_305)"/>
<defs>
<linearGradient id="paint0_linear_53_305" x1="15" y1="2" x2="1.14553" y2="2.53892" gradientUnits="userSpaceOnUse">
<stop stop-color="#FFC75C"/>
<stop offset="1" stop-color="#FFA800"/>
</linearGradient>
</defs>
</svg>
