<svg width="59" height="58" viewBox="0 0 59 58" fill="none" xmlns="http://www.w3.org/2000/svg">
<g clip-path="url(#clip0_40_202)">
<rect x="0.571289" width="58" height="58" rx="29" fill="#4B1F73"/>
<path d="M34.6193 26.128C36.7953 26.768 38.5233 27.888 39.8033 29.488C41.1153 31.056 41.7713 33.04 41.7713 35.44C41.7713 39.152 40.5873 41.968 38.2193 43.888C35.8513 45.808 32.8753 46.768 29.2913 46.768C26.3473 46.768 23.7713 46.096 21.5633 44.752C19.3553 43.408 17.7713 41.424 16.8113 38.8L25.2593 33.952C25.9313 36.288 27.2753 37.456 29.2913 37.456C30.1553 37.456 30.8433 37.232 31.3553 36.784C31.8993 36.336 32.1713 35.728 32.1713 34.96C32.1713 33.36 31.2113 32.56 29.2913 32.56H27.2273L23.4833 26.992L27.9953 21.712H17.8673V12.4H39.9473V19.792L34.6193 26.128Z" fill="url(#paint0_linear_40_202)"/>
</g>
<defs>
<linearGradient id="paint0_linear_40_202" x1="16.5713" y1="-9" x2="45.6467" y2="-8.20816" gradientUnits="userSpaceOnUse">
<stop stop-color="#FFC75C"/>
<stop offset="1" stop-color="#FFA800"/>
</linearGradient>
<clipPath id="clip0_40_202">
<rect x="0.571289" width="58" height="58" rx="29" fill="white"/>
</clipPath>
</defs>
</svg>
