<svg width="222" height="525" viewBox="0 0 222 525" fill="none" xmlns="http://www.w3.org/2000/svg">
<g filter="url(#filter0_bdi_40_86)">
<path d="M137.575 40.2134C134.285 36.9234 123.448 34.0205 120.351 32.4723C117.255 30.9241 115.126 27.6342 112.997 25.5054C110.869 23.3766 109.127 21.2478 109.127 19.6996C109.127 18.1514 110.288 17.3773 110.288 17.3773C107.966 15.0549 100.612 10.4103 102.74 8.28149C104.869 6.1527 115.9 16.7967 115.9 16.7967C115.32 13.5067 120.158 15.442 120.158 15.442C119.577 12.7326 124.802 14.2808 124.802 14.2808C124.802 11.765 130.028 15.2485 131.963 17.3773C134.092 19.5061 135.059 20.8607 135.059 22.796C135.059 24.7312 144.349 32.8594 144.349 32.8594C142.994 38.0846 137.575 40.2134 137.575 40.2134Z" fill="#FCA475"/>
<path d="M118.803 24.7312C118.997 24.7312 118.997 24.7312 119.19 24.5377C119.384 24.3442 119.384 24.1506 119.19 23.7636C117.255 21.4412 114.933 19.506 112.417 17.7643C111.836 17.3772 111.062 16.9902 110.288 17.1837C109.707 17.3772 109.32 17.7643 108.933 18.3448C108.74 18.9254 108.74 19.506 108.74 19.893C108.74 20.0866 108.933 20.4736 109.32 20.4736C109.707 20.4736 109.901 20.2801 109.901 19.893C109.901 19.506 109.901 19.1189 110.095 18.7319C110.288 18.5384 110.482 18.1513 110.675 18.1513C111.062 18.1513 111.449 18.3448 112.03 18.5384C114.352 20.2801 116.674 22.2154 118.61 24.3442C118.61 24.7312 118.61 24.7312 118.803 24.7312Z" fill="#E07E58"/>
<path d="M123.254 26.0861C123.641 26.0861 123.835 26.0861 124.028 25.8925C124.803 25.5055 125.19 24.7314 124.996 23.9573C124.996 23.7637 124.609 23.5702 124.415 23.7637C124.222 23.7637 124.028 24.1508 124.222 24.3443C124.222 24.5378 124.222 24.9249 123.835 25.1184C123.448 25.312 123.061 25.312 122.674 24.9249C122.287 24.7314 121.9 24.3443 121.513 23.9573C120.545 22.9896 119.964 21.6349 119.19 20.4738C118.61 19.6997 118.223 18.732 117.642 17.9579L117.449 17.7644C117.061 17.3774 116.868 16.9903 116.674 16.6033C116.481 16.2162 116.481 15.6356 116.868 15.4421C117.061 15.2486 117.642 15.2486 118.223 15.2486C118.803 15.4421 119.577 15.6356 120.158 15.8292C120.351 16.0227 120.738 15.8291 120.738 15.6356C120.932 15.4421 120.738 15.055 120.545 15.055C119.771 14.668 119.19 14.4745 118.416 14.2809C117.449 14.0874 116.868 14.2809 116.287 14.668C115.707 15.2486 115.513 16.0227 115.9 16.7968C116.094 17.3774 116.481 17.958 116.674 18.345V18.5385C117.255 19.3126 117.836 20.0867 118.223 20.8608C118.997 22.022 119.771 23.1832 120.738 24.3443C121.126 24.7314 121.513 25.312 122.093 25.5055C122.48 25.8925 122.867 26.0861 123.254 26.0861Z" fill="#E07E58"/>
<path d="M126.737 25.5054C127.705 25.5054 128.866 24.9248 128.866 23.7636C128.866 23.5701 128.673 23.1831 128.479 23.1831C128.286 23.1831 127.899 23.3766 127.899 23.5701C127.899 23.9572 127.318 24.3442 126.737 24.3442C126.544 24.3442 126.157 24.3443 125.963 24.1507C125.576 23.9572 125.383 23.5701 125.189 23.1831V22.9896C124.802 22.2154 124.222 21.6349 123.835 21.0543C123.447 20.4737 122.867 19.6996 122.48 19.119C121.512 17.5708 121.125 16.2161 121.319 14.8614C121.319 14.6679 121.319 14.4744 121.512 14.2809C121.706 14.0873 121.899 14.0873 122.093 14.0873C123.06 14.0873 124.028 14.2809 124.996 14.4744C125.189 14.4744 125.576 14.2808 125.576 14.0873C125.576 13.8938 125.383 13.5068 125.189 13.5068C124.222 13.3132 123.254 13.1197 122.093 13.1197C121.706 13.1197 121.125 13.1197 120.738 13.5068C120.351 13.8938 120.351 14.2809 120.351 14.6679C120.157 16.2161 120.738 17.7643 121.706 19.5061C122.093 20.2802 122.673 20.8608 123.06 21.4413C123.447 22.0219 124.028 22.796 124.415 23.3766C124.802 23.9572 124.996 24.3442 125.576 24.7313C125.77 25.5054 126.157 25.5054 126.737 25.5054Z" fill="#E07E58"/>
<path d="M130.028 24.5378H130.221C130.415 24.5378 130.608 24.5378 130.802 24.3442C130.995 24.1507 130.995 23.9572 130.995 23.9572C131.189 22.9896 131.189 21.8284 130.802 20.8608C130.608 19.6996 130.221 18.5385 130.028 17.3773C130.028 17.1838 129.641 16.9902 129.447 16.9902C129.254 16.9902 129.06 17.3773 129.06 17.5708C129.254 18.732 129.641 19.8931 129.834 20.8608C130.028 21.8284 130.221 22.6025 130.028 23.5701C129.447 23.5701 129.06 23.3766 128.48 22.9896C128.093 22.6025 127.705 22.0219 127.512 21.2478C126.544 19.119 125.577 16.9902 125.77 14.6679C125.77 14.2809 125.964 14.0873 125.964 14.0873H126.157C127.125 14.0873 128.093 14.4744 128.673 15.2485C128.867 15.442 129.254 15.442 129.447 15.2485C129.641 15.055 129.641 14.6679 129.447 14.4744C128.673 13.7003 127.512 13.1197 126.351 13.1197C126.157 13.1197 125.964 13.1197 125.577 13.1197C125.19 13.3132 124.803 13.7003 124.803 14.4744C124.609 16.9902 125.577 19.3126 126.738 21.6349C127.125 22.409 127.512 22.9896 127.899 23.5701C128.673 24.3442 129.447 24.5378 130.028 24.5378Z" fill="#E07E58"/>
<path d="M164.475 457.069V476.422C156.928 479.518 149.38 476.809 149.38 476.809L147.832 458.618L164.475 457.069Z" fill="#FCA676"/>
<path d="M196.987 499.452C200.858 499.452 204.148 495.194 197.568 491.13C190.988 487.066 164.281 476.229 164.281 476.229C160.217 478.357 149.186 476.616 149.186 476.616C149.186 476.616 143.767 490.937 142.606 494.033C141.445 497.129 145.316 498.291 151.896 498.291C158.669 498.484 196.987 499.452 196.987 499.452Z" fill="url(#paint0_linear_40_86)"/>
<path d="M112.417 458.618L110.868 477.97C103.127 481.067 95.7732 478.357 95.7732 478.357L95.5797 460.166L112.417 458.618Z" fill="#FCA676"/>
<path d="M143.38 501C147.251 501 150.541 496.742 143.961 492.678C137.381 488.614 110.674 477.777 110.674 477.777C106.61 479.906 95.5792 478.164 95.5792 478.164C95.5792 478.164 90.1605 492.485 88.9993 495.581C87.8382 498.678 91.7087 499.839 98.2886 499.839C105.062 500.032 143.38 501 143.38 501Z" fill="url(#paint1_linear_40_86)"/>
<path d="M146.864 237.03C154.412 252.125 171.636 347.921 171.636 364.564C171.636 381.207 166.991 471.39 166.991 471.39L145.703 473.132C145.703 473.132 140.865 367.467 137.962 360.306C135.253 352.952 129.447 340.567 129.447 340.567C129.447 340.567 119.19 438.491 117.448 448.554C115.707 458.618 112.417 474.874 112.417 474.874L93.4511 472.939C93.4511 472.939 94.8058 372.692 93.8381 357.016C92.8705 341.341 79.9042 256.77 79.9042 239.546C88.2258 231.031 137.962 231.998 146.864 237.03Z" fill="url(#paint2_linear_40_86)"/>
<path d="M113.384 106.399C121.512 100.4 155.379 89.1755 163.895 85.4985C172.41 81.8215 174.926 79.3056 174.926 79.3056L136.027 40.4068C145.703 35.1816 143.381 31.5046 143.381 31.5046C175.119 53.3731 203.374 72.7257 204.922 78.5315C206.47 84.3373 207.244 88.7884 193.117 96.9165C178.99 105.045 138.349 132.525 129.253 132.525C120.351 132.332 102.353 114.721 113.384 106.399Z" fill="url(#paint3_linear_40_86)"/>
<path d="M73.3238 71.5645C78.162 80.0797 85.129 102.722 85.129 102.722C101.385 104.658 110.674 100.593 112.803 96.9165L103.32 73.4998L73.3238 71.5645Z" fill="url(#paint4_linear_40_86)"/>
<path d="M92.8701 25.1183C103.321 28.7953 107.578 35.1817 113.964 53.9538C118.029 66.1459 123.641 82.5957 118.416 84.3374C109.513 87.2403 87.0643 83.9504 76.4203 75.2417C65.9699 66.533 59.9706 50.2768 61.7123 41.5681C63.454 33.0529 77.1944 19.6996 92.8701 25.1183Z" fill="url(#paint5_linear_40_86)"/>
<path d="M88.2259 57.8243C86.4841 55.1149 83.3877 53.5667 80.2913 53.9537C77.3884 54.3408 75.066 56.4696 77.1948 61.1142C81.0654 69.4358 85.1294 69.4359 85.9035 71.5647C86.4841 73.6934 87.8388 80.0798 86.2906 83.1762C84.7424 86.4662 80.8719 90.5302 80.2913 90.7238C79.7107 90.9173 75.066 72.3387 66.5509 66.533C60.358 65.7588 56.8746 61.6948 57.0681 53.9537C52.2299 49.8897 53.1975 40.0198 60.7451 37.504C61.7127 23.3765 74.679 17.5707 80.2913 21.4413C90.3547 7.12031 118.997 18.5384 108.353 35.7623C103.321 43.8904 92.2899 36.9234 92.2899 36.9234C90.7417 43.5033 83.7747 42.5357 83.7747 42.5357C91.3223 51.2444 91.7093 58.0178 90.3546 58.9854C89.387 59.566 88.8064 58.7919 88.2259 57.8243Z" fill="url(#paint6_linear_40_86)"/>
<path d="M84.7418 101.755C102.353 105.045 112.61 96.9166 112.61 96.9166C112.61 96.9166 132.349 104.271 138.929 123.236C151.702 160.2 146.67 205.678 146.67 237.03C146.67 237.03 96.934 234.901 79.9037 244.577C79.9037 244.577 69.2597 141.428 73.3238 126.72C77.3878 112.012 78.7425 107.754 84.7418 101.755Z" fill="url(#paint7_linear_40_86)"/>
<path d="M112.417 97.3037C115.126 99.239 118.029 103.497 115.707 104.658C113.384 106.012 87.6453 105.238 83.3877 102.722C83.9683 100.594 84.9359 100.4 84.9359 100.4C91.1287 100.207 109.901 98.4649 112.417 97.3037Z" fill="white"/>
<path d="M73.3246 236.643C76.2275 235.675 77.1951 232.385 82.2268 232.385C87.065 232.385 93.8384 235.482 95.1931 235.482C96.5478 235.482 98.096 238.772 95.7737 239.352C96.1607 239.352 110.482 243.416 110.482 243.416C110.482 243.416 113.578 244.577 113.191 246.319C112.804 248.254 110.288 248.061 110.288 248.061C112.804 248.254 114.352 251.157 113.191 252.318C112.03 253.48 109.514 252.705 109.514 252.705C111.643 253.48 111.256 255.802 109.514 256.769C107.772 257.544 103.128 256.382 103.128 256.382C105.256 257.157 104.482 260.447 101.386 260.059C98.2895 259.672 87.8391 256.382 84.9362 255.995C82.0333 255.608 71.7764 248.835 70.0346 247.093C68.2929 245.351 66.7447 242.836 66.7447 242.836C66.7447 242.836 69.067 235.675 73.3246 236.643Z" fill="#FCA475"/>
<path d="M94.9998 239.739C95.1933 239.739 95.3868 239.739 95.5804 239.739C95.9674 239.739 96.3545 239.739 96.7415 239.352C97.1286 238.965 97.5156 238.384 97.5156 237.61C97.5156 236.643 96.9351 235.675 95.9674 235.095C95.7739 234.901 95.3868 235.095 95.3868 235.288C95.1933 235.482 95.3868 235.869 95.5804 235.869C96.1609 236.256 96.548 236.836 96.548 237.61C96.548 237.997 96.548 238.384 96.1609 238.384C95.9674 238.578 95.7739 238.578 95.5804 238.578C94.2257 238.772 93.0645 238.385 91.7098 237.804C90.7422 237.417 89.581 237.223 88.4199 237.03C88.2263 237.03 87.8393 237.223 87.8393 237.417C87.8393 237.61 88.0329 237.997 88.2264 237.997C89.194 237.997 90.1616 238.385 91.3228 238.772C92.4839 239.352 93.6451 239.739 94.9998 239.739Z" fill="#E07E58"/>
<path d="M109.514 248.254C110.095 248.254 110.482 248.254 111.062 248.061C111.449 248.061 111.836 247.867 112.223 247.674C113.191 247.093 113.578 245.739 113.191 244.771C112.998 244.577 112.804 244.384 112.61 244.577C112.417 244.771 112.223 244.964 112.417 245.158C112.61 245.739 112.417 246.513 111.836 246.9C111.643 247.093 111.256 247.093 111.062 247.287C109.901 247.48 108.546 247.287 107.579 247.093C106.998 247.093 106.611 246.9 106.224 246.9C105.643 246.9 105.256 246.706 104.676 246.706C102.547 246.126 100.225 245.545 97.9025 244.577C97.7089 244.577 97.3218 244.577 97.3218 244.771C97.3218 244.964 97.3218 245.352 97.5154 245.352C99.8377 246.319 102.354 246.9 104.482 247.48C105.063 247.674 105.643 247.674 106.031 247.674C106.418 247.674 106.805 247.674 107.192 247.867C107.966 248.254 108.74 248.254 109.514 248.254Z" fill="#E07E58"/>
<path d="M110.869 253.093C111.062 253.093 111.256 253.093 111.449 253.093C112.223 252.899 112.997 252.512 113.385 251.931C113.772 251.157 113.772 250.19 113.385 249.416C112.997 248.835 112.417 248.254 111.643 247.867C111.449 247.674 111.062 247.867 111.062 248.061C111.062 248.254 111.062 248.641 111.256 248.641C111.643 248.835 112.223 249.222 112.61 249.803C112.804 250.383 112.997 250.964 112.61 251.351C112.417 251.738 111.836 251.931 111.256 252.125C110.675 252.125 110.095 252.125 109.514 251.931C108.353 251.738 107.192 251.544 105.837 251.351C105.256 251.157 104.482 251.157 103.902 250.964C100.612 250.383 97.9023 249.803 95.193 248.835C94.9995 248.835 94.6124 248.835 94.6124 249.222C94.6124 249.416 94.6124 249.803 94.9995 249.803C97.7089 250.77 100.418 251.351 103.902 251.931C104.482 252.125 105.256 252.125 105.837 252.318C106.998 252.512 108.353 252.706 109.514 252.899C109.901 253.093 110.288 253.093 110.869 253.093Z" fill="#E07E58"/>
<path d="M107.192 257.35C107.579 257.35 108.16 257.35 108.547 257.157C109.708 256.963 110.482 256.576 111.062 255.802C111.449 255.221 111.643 254.447 111.449 253.867C111.256 253.093 110.869 252.512 110.288 252.318C110.095 252.125 109.708 252.318 109.708 252.512C109.514 252.706 109.708 253.093 109.901 253.093C110.288 253.286 110.482 253.673 110.675 254.06C110.869 254.447 110.675 254.834 110.482 255.221C110.095 255.608 109.514 255.995 108.74 256.189C106.998 256.576 105.257 255.995 103.321 255.608C102.741 255.415 102.354 255.415 101.773 255.221C99.0638 254.641 96.5479 253.867 94.4191 253.286C94.2256 253.286 93.8385 253.286 93.8385 253.673C93.8385 253.867 93.8385 254.254 94.2256 254.254C96.3544 255.028 98.8702 255.608 101.773 256.189C102.354 256.382 102.741 256.383 103.321 256.576C104.095 256.963 105.644 257.35 107.192 257.35Z" fill="#E07E58"/>
<path d="M101.386 260.253C101.773 260.253 102.16 260.253 102.547 260.059C103.515 259.866 104.289 259.285 104.676 258.705C105.256 257.931 105.063 256.77 104.482 256.189C104.289 255.995 103.902 255.995 103.708 256.189C103.515 256.382 103.515 256.77 103.708 256.963C104.095 257.35 104.095 257.931 103.708 258.318C103.515 258.705 102.934 259.092 102.16 259.285C100.999 259.479 99.6441 259.285 98.4829 258.898L90.9354 256.963C90.7419 256.963 90.3548 256.963 90.3548 257.35C90.3548 257.544 90.3548 257.931 90.7419 257.931L98.2894 259.866C99.257 260.059 100.225 260.253 101.386 260.253Z" fill="#E07E58"/>
<path d="M82.4198 106.399C97.1278 103.303 107.385 127.881 90.935 142.395C79.3234 152.652 42.5533 185.552 42.5533 185.552L73.324 236.836C66.9377 239.546 67.7118 244.577 67.7118 244.577C67.7118 244.577 17.7819 190.777 16.4273 187.1C15.0726 183.229 20.2977 172.198 29.3935 163.103C38.2957 153.813 66.1636 109.689 82.4198 106.399Z" fill="url(#paint8_linear_40_86)"/>
<path d="M125.189 374.627C125.382 374.627 125.576 374.434 125.576 374.24C130.027 350.824 134.672 276.896 134.865 276.316C134.865 276.122 134.672 275.735 134.478 275.735C134.091 275.735 133.898 275.929 133.898 276.122C133.898 276.896 129.059 350.63 124.608 374.047C124.802 374.434 124.802 374.627 125.189 374.627Z" fill="#3C4FA0"/>
<path d="M116.481 58.792C113.191 57.8243 109.32 61.5013 107.385 64.4042C105.45 67.3071 99.2569 66.9201 89.9676 54.1473L87.8388 57.4373C93.064 65.3719 96.354 82.7893 99.6439 84.1439C102.934 85.4986 113.578 87.2404 118.609 85.3051C123.641 83.3698 124.028 79.8864 123.061 74.4676C122.093 68.8554 118.029 60.7272 116.481 58.792Z" fill="url(#paint9_linear_40_86)"/>
<path d="M117.255 62.6624C115.126 64.017 109.707 65.5653 110.288 66.7264C111.642 69.8228 118.416 68.6617 118.996 66.7264C119.383 64.7912 117.835 63.0494 117.255 62.6624Z" fill="url(#paint10_linear_40_86)"/>
<path d="M43.3274 186.326C43.521 186.326 43.7145 186.326 43.908 186.132C55.9066 173.747 69.0665 162.135 82.8068 151.685L83.1939 151.297C89.7738 146.266 96.7407 141.041 99.2566 133.106C99.4501 132.719 99.2566 132.332 98.8696 132.138C98.4825 131.945 98.0955 132.138 97.9019 132.525C95.3861 140.073 88.8062 145.105 82.4198 149.943L82.0327 150.33C68.2924 160.78 55.1325 172.392 42.9404 184.971C42.7468 185.165 42.7468 185.745 42.9404 185.939C42.9404 186.132 43.1339 186.326 43.3274 186.326Z" fill="#50448C"/>
</g>
<defs>
<filter id="filter0_bdi_40_86" x="0.214844" y="-8" width="221.516" height="533" filterUnits="userSpaceOnUse" color-interpolation-filters="sRGB">
<feFlood flood-opacity="0" result="BackgroundImageFix"/>
<feGaussianBlur in="BackgroundImageFix" stdDeviation="8"/>
<feComposite in2="SourceAlpha" operator="in" result="effect1_backgroundBlur_40_86"/>
<feColorMatrix in="SourceAlpha" type="matrix" values="0 0 0 0 0 0 0 0 0 0 0 0 0 0 0 0 0 0 127 0" result="hardAlpha"/>
<feOffset dy="8"/>
<feGaussianBlur stdDeviation="8"/>
<feComposite in2="hardAlpha" operator="out"/>
<feColorMatrix type="matrix" values="0 0 0 0 0 0 0 0 0 0 0 0 0 0 0 0 0 0 0.16 0"/>
<feBlend mode="normal" in2="effect1_backgroundBlur_40_86" result="effect2_dropShadow_40_86"/>
<feBlend mode="normal" in="SourceGraphic" in2="effect2_dropShadow_40_86" result="shape"/>
<feColorMatrix in="SourceAlpha" type="matrix" values="0 0 0 0 0 0 0 0 0 0 0 0 0 0 0 0 0 0 127 0" result="hardAlpha"/>
<feOffset dy="3"/>
<feComposite in2="hardAlpha" operator="arithmetic" k2="-1" k3="1"/>
<feColorMatrix type="matrix" values="0 0 0 0 1 0 0 0 0 1 0 0 0 0 1 0 0 0 0.48 0"/>
<feBlend mode="normal" in2="shape" result="effect3_innerShadow_40_86"/>
</filter>
<linearGradient id="paint0_linear_40_86" x1="196.547" y1="480.653" x2="143.32" y2="497.983" gradientUnits="userSpaceOnUse">
<stop stop-color="#263681"/>
<stop offset="0.9959" stop-color="#1A1248"/>
</linearGradient>
<linearGradient id="paint1_linear_40_86" x1="142.972" y1="482.168" x2="89.745" y2="499.498" gradientUnits="userSpaceOnUse">
<stop stop-color="#263681"/>
<stop offset="0.9959" stop-color="#1A1248"/>
</linearGradient>
<linearGradient id="paint2_linear_40_86" x1="179.512" y1="336.449" x2="61.6593" y2="374.821" gradientUnits="userSpaceOnUse">
<stop stop-color="#263681"/>
<stop offset="0.9959" stop-color="#1A1248"/>
</linearGradient>
<linearGradient id="paint3_linear_40_86" x1="187.37" y1="32.0286" x2="127.305" y2="145.091" gradientUnits="userSpaceOnUse">
<stop stop-color="#9571CB"/>
<stop offset="0.9959" stop-color="#6237C0"/>
</linearGradient>
<linearGradient id="paint4_linear_40_86" x1="96.5128" y1="101.498" x2="92.9169" y2="83.8317" gradientUnits="userSpaceOnUse">
<stop stop-color="#FFC085"/>
<stop offset="1" stop-color="#FA976E"/>
</linearGradient>
<linearGradient id="paint5_linear_40_86" x1="112.623" y1="50.0015" x2="66.4876" y2="65.0226" gradientUnits="userSpaceOnUse">
<stop stop-color="#FFC085"/>
<stop offset="1" stop-color="#FA976E"/>
</linearGradient>
<linearGradient id="paint6_linear_40_86" x1="115.807" y1="43.0238" x2="58.4154" y2="61.7096" gradientUnits="userSpaceOnUse">
<stop stop-color="#263681"/>
<stop offset="0.9959" stop-color="#1A1248"/>
</linearGradient>
<linearGradient id="paint7_linear_40_86" x1="108.797" y1="102.922" x2="110.69" y2="190.388" gradientUnits="userSpaceOnUse">
<stop stop-color="#9571CB"/>
<stop offset="0.9959" stop-color="#6237C0"/>
</linearGradient>
<linearGradient id="paint8_linear_40_86" x1="55.6328" y1="93.2023" x2="60.5552" y2="238.979" gradientUnits="userSpaceOnUse">
<stop stop-color="#9571CB"/>
<stop offset="0.9959" stop-color="#6237C0"/>
</linearGradient>
<linearGradient id="paint9_linear_40_86" x1="75.7969" y1="16.5907" x2="112.648" y2="79.4756" gradientUnits="userSpaceOnUse">
<stop stop-color="#263681"/>
<stop offset="0.9959" stop-color="#1A1248"/>
</linearGradient>
<linearGradient id="paint10_linear_40_86" x1="118.943" y1="65.7493" x2="110.163" y2="65.7493" gradientUnits="userSpaceOnUse">
<stop stop-color="#FFC085"/>
<stop offset="1" stop-color="#FA976E"/>
</linearGradient>
</defs>
</svg>
