<svg width="201" height="207" viewBox="0 0 201 207" fill="none" xmlns="http://www.w3.org/2000/svg">
<g filter="url(#filter0_d_40_214)">
<path opacity="0.4" d="M129.429 133.253H71.769C69.2305 133.253 66.9338 131.621 66.0876 129.264L40.9443 58.8507C38.9498 53.2298 45.3565 48.455 50.1313 51.9001L74.3075 69.1861C77.5109 71.4828 82.1044 70.0927 83.4945 66.4058L94.9178 35.9438C96.8519 30.6854 104.286 30.6854 106.22 35.9438L117.643 66.4058C119.034 70.1531 123.567 71.4828 126.83 69.1861L151.007 51.9001C155.842 48.455 162.188 53.2902 160.194 58.8507L135.05 129.264C134.265 131.621 131.968 133.253 129.429 133.253Z" fill="url(#paint0_linear_40_214)"/>
<path d="M130.818 151.506H70.3773C67.8992 151.506 65.8442 149.451 65.8442 146.973C65.8442 144.495 67.8992 142.44 70.3773 142.44H130.818C133.296 142.44 135.351 144.495 135.351 146.973C135.351 149.451 133.296 151.506 130.818 151.506Z" fill="url(#paint1_linear_40_214)"/>
<path d="M115.708 107.687H85.4876C83.0096 107.687 80.9546 105.632 80.9546 103.154C80.9546 100.676 83.0096 98.6207 85.4876 98.6207H115.708C118.186 98.6207 120.241 100.676 120.241 103.154C120.241 105.632 118.186 107.687 115.708 107.687Z" fill="url(#paint2_linear_40_214)"/>
</g>
<path d="M64.6513 170.6H71.3713L64.9073 185.768C63.8406 188.264 62.4326 190.12 60.6833 191.336C58.9553 192.552 56.694 193.107 53.8993 193V187.048C55.8406 187.197 57.3126 186.824 58.3153 185.928L50.8913 170.6H57.6113L61.4833 179.112L64.6513 170.6ZM82.302 193.512C78.9314 193.512 76.1367 192.392 73.918 190.152C71.6994 187.912 70.59 185.128 70.59 181.8C70.59 178.472 71.6994 175.688 73.918 173.448C76.1367 171.208 78.9314 170.088 82.302 170.088C84.3714 170.088 86.2807 170.579 88.03 171.56C89.7794 172.541 91.1447 173.864 92.126 175.528L86.558 178.728C86.1954 178.003 85.63 177.427 84.862 177C84.094 176.573 83.2407 176.36 82.302 176.36C80.7234 176.36 79.4434 176.872 78.462 177.896C77.4807 178.92 76.99 180.221 76.99 181.8C76.99 183.379 77.4807 184.68 78.462 185.704C79.4434 186.728 80.7234 187.24 82.302 187.24C83.262 187.24 84.1154 187.027 84.862 186.6C85.63 186.173 86.1954 185.587 86.558 184.84L92.126 188.04C91.1447 189.725 89.7794 191.059 88.03 192.04C86.2807 193.021 84.3714 193.512 82.302 193.512ZM111.334 170.6V193H104.934V176.808H100.134V193H93.7338V170.6H111.334ZM120.946 187.112H129.266V193H114.546V170.6H129.106V176.424H120.946V178.856H128.306V184.616H120.946V187.112ZM150.868 193H143.764L140.564 187.624L137.332 193H130.228L137.012 181.672L130.388 170.6H137.492L140.564 175.72L143.604 170.6H150.708L144.116 181.672L150.868 193Z" fill="white"/>
<defs>
<filter id="filter0_d_40_214" x="0.570312" y="0" width="200.001" height="200" filterUnits="userSpaceOnUse" color-interpolation-filters="sRGB">
<feFlood flood-opacity="0" result="BackgroundImageFix"/>
<feColorMatrix in="SourceAlpha" type="matrix" values="0 0 0 0 0 0 0 0 0 0 0 0 0 0 0 0 0 0 127 0" result="hardAlpha"/>
<feOffset dy="8"/>
<feGaussianBlur stdDeviation="20"/>
<feComposite in2="hardAlpha" operator="out"/>
<feColorMatrix type="matrix" values="0 0 0 0 1 0 0 0 0 0.745098 0 0 0 0 0.247059 0 0 0 0.4 0"/>
<feBlend mode="normal" in2="BackgroundImageFix" result="effect1_dropShadow_40_214"/>
<feBlend mode="normal" in="SourceGraphic" in2="effect1_dropShadow_40_214" result="shape"/>
</filter>
<linearGradient id="paint0_linear_40_214" x1="40.5703" y1="32" x2="168.804" y2="43.8036" gradientUnits="userSpaceOnUse">
<stop stop-color="#FFC75C"/>
<stop offset="1" stop-color="#FFA800"/>
</linearGradient>
<linearGradient id="paint1_linear_40_214" x1="65.8442" y1="142.44" x2="121.143" y2="175.368" gradientUnits="userSpaceOnUse">
<stop stop-color="#FFC75C"/>
<stop offset="1" stop-color="#FFA800"/>
</linearGradient>
<linearGradient id="paint2_linear_40_214" x1="80.9546" y1="98.6207" x2="118.985" y2="111.42" gradientUnits="userSpaceOnUse">
<stop stop-color="#FFC75C"/>
<stop offset="1" stop-color="#FFA800"/>
</linearGradient>
</defs>
</svg>
