<svg width="59" height="58" viewBox="0 0 59 58" fill="none" xmlns="http://www.w3.org/2000/svg">
<g clip-path="url(#clip0_40_200)">
<rect x="0.571289" width="58" height="58" rx="29" fill="#4B1F73"/>
<path d="M17.5313 46V38.992L28.4753 27.136C28.6673 26.912 28.9393 26.608 29.2913 26.224C29.6753 25.84 29.9313 25.568 30.0593 25.408C30.2193 25.248 30.4113 25.04 30.6353 24.784C30.8913 24.496 31.0513 24.272 31.1153 24.112C31.2113 23.92 31.2913 23.728 31.3553 23.536C31.4513 23.312 31.4993 23.088 31.4993 22.864C31.4993 22.32 31.3073 21.872 30.9233 21.52C30.5393 21.136 29.9793 20.944 29.2433 20.944C27.4513 20.944 26.1233 22.08 25.2593 24.352L16.8113 19.744C17.9313 17.088 19.5793 15.072 21.7553 13.696C23.9633 12.32 26.4113 11.632 29.0993 11.632C32.3953 11.632 35.2113 12.576 37.5473 14.464C39.9153 16.32 41.0993 18.896 41.0993 22.192C41.0993 24.208 40.6513 25.968 39.7553 27.472C38.8913 28.976 37.5153 30.784 35.6273 32.896L32.2193 36.688H41.8193V46H17.5313Z" fill="url(#paint0_linear_40_200)"/>
</g>
<defs>
<linearGradient id="paint0_linear_40_200" x1="16.5713" y1="-9" x2="45.6467" y2="-8.20816" gradientUnits="userSpaceOnUse">
<stop stop-color="#FFC75C"/>
<stop offset="1" stop-color="#FFA800"/>
</linearGradient>
<clipPath id="clip0_40_200">
<rect x="0.571289" width="58" height="58" rx="29" fill="white"/>
</clipPath>
</defs>
</svg>
