<svg width="25" height="24" viewBox="0 0 25 24" fill="none" xmlns="http://www.w3.org/2000/svg">
<path d="M19.3153 10.4999C18.7993 10.4999 18.3913 10.0799 18.3913 9.57595C18.3913 9.13195 17.9473 8.20795 17.2033 7.40395C16.4713 6.62395 15.6673 6.16795 14.9953 6.16795C14.4793 6.16795 14.0713 5.74795 14.0713 5.24395C14.0713 4.73995 14.4913 4.31995 14.9953 4.31995C16.1953 4.31995 17.4553 4.96795 18.5593 6.13195C19.5913 7.22395 20.2513 8.57995 20.2513 9.56395C20.2513 10.0799 19.8313 10.4999 19.3153 10.4999Z" fill="url(#paint0_linear_22_18)"/>
<path d="M23.647 10.5C23.131 10.5 22.723 10.08 22.723 9.576C22.723 5.316 19.255 1.86 15.007 1.86C14.491 1.86 14.083 1.44 14.083 0.936C14.083 0.432 14.491 0 14.995 0C20.275 0 24.571 4.296 24.571 9.576C24.571 10.08 24.151 10.5 23.647 10.5Z" fill="url(#paint1_linear_22_18)"/>
<path opacity="0.4" d="M12.3193 14.652L8.39529 18.576C7.96329 18.192 7.54329 17.796 7.13529 17.388C5.89929 16.14 4.78329 14.832 3.78729 13.464C2.80329 12.096 2.01129 10.728 1.43529 9.372C0.859289 8.004 0.571289 6.696 0.571289 5.448C0.571289 4.632 0.715289 3.852 1.00329 3.132C1.29129 2.4 1.74729 1.728 2.38329 1.128C3.15129 0.372 3.99129 0 4.87929 0C5.21529 0 5.55129 0.0720001 5.85129 0.216C6.16329 0.36 6.43929 0.576 6.65529 0.888L9.43929 4.812C9.65529 5.112 9.81129 5.388 9.91929 5.652C10.0273 5.904 10.0873 6.156 10.0873 6.384C10.0873 6.672 10.0033 6.96 9.83529 7.236C9.67929 7.512 9.45129 7.8 9.16329 8.088L8.25129 9.036C8.11929 9.168 8.05929 9.324 8.05929 9.516C8.05929 9.612 8.07129 9.696 8.09529 9.792C8.13129 9.888 8.16729 9.96 8.19129 10.032C8.40729 10.428 8.77929 10.944 9.30729 11.568C9.84729 12.192 10.4233 12.828 11.0473 13.464C11.4793 13.884 11.8993 14.292 12.3193 14.652Z" fill="url(#paint2_linear_22_18)"/>
<path d="M24.5354 19.596C24.5354 19.932 24.4754 20.28 24.3554 20.616C24.3194 20.712 24.2834 20.808 24.2354 20.904C24.0314 21.336 23.7674 21.744 23.4194 22.128C22.8314 22.776 22.1834 23.244 21.4514 23.544C21.4394 23.544 21.4274 23.556 21.4154 23.556C20.7074 23.844 19.9394 24 19.1114 24C17.8874 24 16.5794 23.712 15.1994 23.124C13.8194 22.536 12.4394 21.744 11.0714 20.748C10.6034 20.4 10.1354 20.052 9.69141 19.68L13.6154 15.756C13.9514 16.008 14.2514 16.2 14.5034 16.332C14.5634 16.356 14.6354 16.392 14.7194 16.428C14.8154 16.464 14.9114 16.476 15.0194 16.476C15.2234 16.476 15.3794 16.404 15.5114 16.272L16.4234 15.372C16.7234 15.072 17.0114 14.844 17.2874 14.7C17.5634 14.532 17.8394 14.448 18.1394 14.448C18.3674 14.448 18.6074 14.496 18.8714 14.604C19.1354 14.712 19.4114 14.868 19.7114 15.072L23.6834 17.892C23.9954 18.108 24.2114 18.36 24.3434 18.66C24.4634 18.96 24.5354 19.26 24.5354 19.596Z" fill="url(#paint3_linear_22_18)"/>
<defs>
<linearGradient id="paint0_linear_22_18" x1="14.0713" y1="4.31995" x2="20.6913" y2="4.83411" gradientUnits="userSpaceOnUse">
<stop stop-color="#FFC75C"/>
<stop offset="1" stop-color="#FFA800"/>
</linearGradient>
<linearGradient id="paint1_linear_22_18" x1="14.083" y1="0" x2="25.318" y2="0.871592" gradientUnits="userSpaceOnUse">
<stop stop-color="#FFC75C"/>
<stop offset="1" stop-color="#FFA800"/>
</linearGradient>
<linearGradient id="paint2_linear_22_18" x1="0.571289" y1="0" x2="13.2013" y2="0.620372" gradientUnits="userSpaceOnUse">
<stop stop-color="#FFC75C"/>
<stop offset="1" stop-color="#FFA800"/>
</linearGradient>
<linearGradient id="paint3_linear_22_18" x1="9.69141" y1="14.448" x2="25.4586" y2="16.351" gradientUnits="userSpaceOnUse">
<stop stop-color="#FFC75C"/>
<stop offset="1" stop-color="#FFA800"/>
</linearGradient>
</defs>
</svg>
