<svg width="23" height="22" viewBox="0 0 23 22" fill="none" xmlns="http://www.w3.org/2000/svg">
<path opacity="0.4" d="M17.0713 20.5335H6.07129C2.77129 20.5335 0.571289 18.8835 0.571289 15.0335V7.3335C0.571289 3.4835 2.77129 1.8335 6.07129 1.8335H17.0713C20.3713 1.8335 22.5713 3.4835 22.5713 7.3335V15.0335C22.5713 18.8835 20.3713 20.5335 17.0713 20.5335Z" fill="url(#paint0_linear_45_285)"/>
<path d="M11.5711 12.1407C10.6471 12.1407 9.71215 11.8547 8.99715 11.2717L5.55414 8.52166C5.20214 8.23566 5.13615 7.71866 5.42215 7.36666C5.70815 7.01466 6.22515 6.94866 6.57715 7.23466L10.0201 9.98466C10.8561 10.6557 12.2751 10.6557 13.1111 9.98466L16.5541 7.23466C16.9061 6.94866 17.4341 7.00366 17.7091 7.36666C17.9951 7.71866 17.9401 8.24666 17.5771 8.52166L14.1341 11.2717C13.4301 11.8547 12.4951 12.1407 11.5711 12.1407Z" fill="url(#paint1_linear_45_285)"/>
<defs>
<linearGradient id="paint0_linear_45_285" x1="0.571289" y1="1.8335" x2="24.0837" y2="3.9819" gradientUnits="userSpaceOnUse">
<stop stop-color="#FFC75C"/>
<stop offset="1" stop-color="#FFA800"/>
</linearGradient>
<linearGradient id="paint1_linear_45_285" x1="5.24316" y1="7.05225" x2="18.3841" y2="9.58924" gradientUnits="userSpaceOnUse">
<stop stop-color="#FFC75C"/>
<stop offset="1" stop-color="#FFA800"/>
</linearGradient>
</defs>
</svg>
