<svg width="25" height="24" viewBox="0 0 25 24" fill="none" xmlns="http://www.w3.org/2000/svg">
<g clip-path="url(#clip0_14_111)">
<path fill-rule="evenodd" clip-rule="evenodd" d="M21.9338 14.7576C21.9338 14.7576 23.8742 16.674 24.3542 17.5608C24.3635 17.5736 24.3708 17.5878 24.3758 17.6028C24.5714 17.9304 24.6194 18.1872 24.5234 18.3768C24.3614 18.69 23.813 18.8472 23.627 18.8604H20.1974C19.9586 18.8604 19.4618 18.798 18.857 18.3804C18.395 18.0576 17.9354 17.526 17.4902 17.0064C16.8254 16.2348 16.2506 15.5652 15.6686 15.5652C15.5951 15.5651 15.5221 15.5773 15.4526 15.6012C15.0122 15.7404 14.453 16.368 14.453 18.0396C14.453 18.5628 14.0402 18.8604 13.751 18.8604H12.1802C11.645 18.8604 8.8586 18.6732 6.3878 16.068C3.3602 12.8784 0.640997 6.48005 0.614597 6.42365C0.445397 6.00965 0.800597 5.78405 1.1846 5.78405H4.6478C5.1122 5.78405 5.2634 6.06485 5.369 6.31685C5.4914 6.60605 5.945 7.76285 6.689 9.06245C7.8938 11.1768 8.6342 12.0372 9.2258 12.0372C9.33694 12.0376 9.44621 12.0086 9.5426 11.9532C10.3154 11.5284 10.1714 8.76845 10.1354 8.19965C10.1354 8.08925 10.1342 6.96725 9.7382 6.42485C9.455 6.03605 8.9726 5.88485 8.681 5.82965C8.759 5.71685 8.9246 5.54405 9.137 5.44205C9.6662 5.17805 10.6226 5.13965 11.5718 5.13965H12.0986C13.1282 5.15405 13.3946 5.22005 13.769 5.31485C14.5226 5.49485 14.537 5.98325 14.471 7.64645C14.4518 8.12165 14.4314 8.65685 14.4314 9.28685C14.4314 9.42125 14.4254 9.57125 14.4254 9.72365C14.4026 10.5768 14.3726 11.538 14.975 11.9328C15.0531 11.9815 15.1433 12.0073 15.2354 12.0072C15.4442 12.0072 16.0694 12.0072 17.765 9.09725C18.509 7.81205 19.085 6.29645 19.1246 6.18245C19.1582 6.11885 19.259 5.94005 19.3814 5.86805C19.4685 5.82172 19.566 5.79858 19.6646 5.80085H23.7386C24.1826 5.80085 24.4838 5.86805 24.5426 6.03605C24.641 6.30845 24.5234 7.14005 22.6634 9.65525C22.3502 10.074 22.0754 10.4364 21.8342 10.7532C20.1482 12.966 20.1482 13.0776 21.9338 14.7576Z" fill="url(#paint0_linear_14_111)"/>
</g>
<defs>
<linearGradient id="paint0_linear_14_111" x1="0.571289" y1="5.13965" x2="25.9666" y2="8.58968" gradientUnits="userSpaceOnUse">
<stop stop-color="#FFC75C"/>
<stop offset="1" stop-color="#FFA800"/>
</linearGradient>
<clipPath id="clip0_14_111">
<rect width="24" height="24" fill="white" transform="translate(0.571289)"/>
</clipPath>
</defs>
</svg>
