<svg width="23" height="22" viewBox="0 0 23 22" fill="none" xmlns="http://www.w3.org/2000/svg">
<path d="M17.1913 9.75009C16.7613 9.75009 16.4213 9.40009 16.4213 8.98009C16.4213 8.61009 16.0513 7.84009 15.4313 7.17009C14.8213 6.52009 14.1513 6.14009 13.5913 6.14009C13.1613 6.14009 12.8213 5.7901 12.8213 5.3701C12.8213 4.9501 13.1713 4.6001 13.5913 4.6001C14.5913 4.6001 15.6413 5.1401 16.5613 6.1101C17.4213 7.02009 17.9713 8.15009 17.9713 8.97009C17.9713 9.40009 17.6213 9.75009 17.1913 9.75009Z" fill="url(#paint0_linear_45_308)"/>
<path d="M20.801 9.74998C20.371 9.74998 20.031 9.39998 20.031 8.97998C20.031 5.42999 17.141 2.55 13.6011 2.55C13.1711 2.55 12.8311 2.2 12.8311 1.78C12.8311 1.36 13.1711 1 13.5911 1C17.991 1 21.571 4.57999 21.571 8.97998C21.571 9.39998 21.221 9.74998 20.801 9.74998Z" fill="url(#paint1_linear_45_308)"/>
<path opacity="0.4" d="M11.3613 13.21L8.09128 16.48C7.73128 16.16 7.38128 15.83 7.04128 15.49C6.01128 14.45 5.08128 13.36 4.25128 12.22C3.43129 11.08 2.77129 9.93998 2.29129 8.80999C1.81129 7.66999 1.57129 6.57999 1.57129 5.53999C1.57129 4.85999 1.69129 4.20999 1.93129 3.61C2.17129 3 2.55129 2.44 3.08129 1.94C3.72129 1.31 4.42128 1 5.16128 1C5.44128 1 5.72128 1.06 5.97128 1.18C6.23128 1.3 6.46128 1.48 6.64128 1.74L8.96128 5.00999C9.14128 5.25999 9.27127 5.48999 9.36127 5.70999C9.45127 5.91999 9.50127 6.12999 9.50127 6.31999C9.50127 6.55999 9.43127 6.79999 9.29128 7.02999C9.16128 7.25999 8.97128 7.49999 8.73128 7.73999L7.97128 8.52999C7.86128 8.63999 7.81128 8.76999 7.81128 8.92999C7.81128 9.00998 7.82128 9.07998 7.84128 9.15998C7.87128 9.23998 7.90128 9.29998 7.92128 9.35998C8.10128 9.68998 8.41128 10.12 8.85128 10.64C9.30127 11.16 9.78127 11.69 10.3013 12.22C10.6613 12.57 11.0113 12.91 11.3613 13.21Z" fill="url(#paint2_linear_45_308)"/>
<path d="M21.5414 17.33C21.5414 17.61 21.4914 17.9 21.3914 18.18C21.3614 18.26 21.3314 18.34 21.2914 18.42C21.1214 18.78 20.9014 19.12 20.6114 19.44C20.1214 19.98 19.5814 20.37 18.9714 20.62C18.9614 20.62 18.9514 20.63 18.9414 20.63C18.3514 20.87 17.7114 21 17.0214 21C16.0014 21 14.9114 20.76 13.7614 20.27C12.6114 19.78 11.4614 19.12 10.3214 18.29C9.93138 18 9.54139 17.71 9.17139 17.4L12.4414 14.13C12.7214 14.34 12.9714 14.5 13.1814 14.61C13.2314 14.63 13.2914 14.66 13.3614 14.69C13.4414 14.72 13.5214 14.73 13.6114 14.73C13.7814 14.73 13.9114 14.67 14.0214 14.56L14.7814 13.81C15.0314 13.56 15.2714 13.37 15.5014 13.25C15.7314 13.11 15.9614 13.04 16.2114 13.04C16.4014 13.04 16.6014 13.08 16.8214 13.17C17.0414 13.26 17.2714 13.39 17.5214 13.56L20.8314 15.91C21.0914 16.09 21.2714 16.3 21.3814 16.55C21.4814 16.8 21.5414 17.05 21.5414 17.33Z" fill="url(#paint3_linear_45_308)"/>
<defs>
<linearGradient id="paint0_linear_45_308" x1="12.8213" y1="4.6001" x2="18.338" y2="5.02856" gradientUnits="userSpaceOnUse">
<stop stop-color="#FFC75C"/>
<stop offset="1" stop-color="#FFA800"/>
</linearGradient>
<linearGradient id="paint1_linear_45_308" x1="12.8311" y1="1" x2="22.1935" y2="1.72632" gradientUnits="userSpaceOnUse">
<stop stop-color="#FFC75C"/>
<stop offset="1" stop-color="#FFA800"/>
</linearGradient>
<linearGradient id="paint2_linear_45_308" x1="1.57129" y1="1" x2="12.0962" y2="1.51698" gradientUnits="userSpaceOnUse">
<stop stop-color="#FFC75C"/>
<stop offset="1" stop-color="#FFA800"/>
</linearGradient>
<linearGradient id="paint3_linear_45_308" x1="9.17139" y1="13.04" x2="22.3107" y2="14.6259" gradientUnits="userSpaceOnUse">
<stop stop-color="#FFC75C"/>
<stop offset="1" stop-color="#FFA800"/>
</linearGradient>
</defs>
</svg>
