<svg width="25" height="24" viewBox="0 0 25 24" fill="none" xmlns="http://www.w3.org/2000/svg">
<path d="M20.9715 1.19995H4.17148C2.85148 1.19995 1.77148 2.27995 1.77148 3.59995V20.4C1.77148 21.7212 2.85148 22.8 4.17148 22.8H20.9715C22.2915 22.8 23.3715 21.7212 23.3715 20.4V3.59995C23.3715 2.27995 22.2915 1.19995 20.9715 1.19995ZM12.5523 18.6276C14.3149 18.6272 16.0052 17.9268 17.2515 16.6803C18.4978 15.4338 19.1979 13.7434 19.1979 11.9808C19.1979 11.5752 19.1463 11.184 19.0743 10.8H20.9715V19.4592C20.9715 19.5682 20.95 19.6762 20.9081 19.7768C20.8663 19.8775 20.805 19.969 20.7277 20.0459C20.6504 20.1228 20.5587 20.1838 20.4579 20.2252C20.357 20.2666 20.2489 20.2876 20.1399 20.2872H5.00308C4.89405 20.2876 4.78599 20.2666 4.68512 20.2252C4.58424 20.1838 4.49254 20.1228 4.41527 20.0459C4.338 19.969 4.27669 19.8775 4.23485 19.7768C4.19302 19.6762 4.17148 19.5682 4.17148 19.4592V10.8H6.03028C5.95708 11.184 5.90548 11.5752 5.90548 11.9808C5.9058 13.7435 6.60619 15.4339 7.85264 16.6804C9.09909 17.9268 10.7895 18.6272 12.5523 18.6276ZM8.39908 11.9808C8.39908 11.4353 8.50651 10.8953 8.71523 10.3914C8.92395 9.8875 9.22987 9.42966 9.61553 9.044C10.0012 8.65834 10.459 8.35241 10.9629 8.14369C11.4668 7.93498 12.0069 7.82755 12.5523 7.82755C13.0977 7.82755 13.6378 7.93498 14.1416 8.14369C14.6455 8.35241 15.1034 8.65834 15.489 9.044C15.8747 9.42966 16.1806 9.8875 16.3893 10.3914C16.5981 10.8953 16.7055 11.4353 16.7055 11.9808C16.7055 13.0822 16.2679 14.1386 15.489 14.9175C14.7102 15.6964 13.6538 16.134 12.5523 16.134C11.4508 16.134 10.3944 15.6964 9.61553 14.9175C8.83665 14.1386 8.39908 13.0822 8.39908 11.9808ZM20.1399 7.19995H18.2019C17.9818 7.19932 17.771 7.11163 17.6154 6.95603C17.4598 6.80044 17.3721 6.58959 17.3715 6.36955V4.42915C17.3715 3.97075 17.7435 3.59995 18.2007 3.59995H20.1387C20.5995 3.59995 20.9715 3.97075 20.9715 4.42915V6.36835C20.9715 6.82555 20.5995 7.19995 20.1399 7.19995Z" fill="url(#paint0_linear_14_117)"/>
<defs>
<linearGradient id="paint0_linear_14_117" x1="1.77148" y1="1.19995" x2="24.9095" y2="2.99702" gradientUnits="userSpaceOnUse">
<stop stop-color="#FFC75C"/>
<stop offset="1" stop-color="#FFA800"/>
</linearGradient>
</defs>
</svg>
