<svg width="21" height="20" viewBox="0 0 21 20" fill="none" xmlns="http://www.w3.org/2000/svg">
<path opacity="0.4" d="M9.02427 17.7712C13.9317 17.7712 17.9099 13.793 17.9099 8.8856C17.9099 3.97822 13.9317 0 9.02427 0C4.11689 0 0.138672 3.97822 0.138672 8.8856C0.138672 13.793 4.11689 17.7712 9.02427 17.7712Z" fill="#CCCCCC"/>
<path d="M19.8529 16.7159C19.5275 16.1144 18.8371 15.7791 17.9101 15.7791C17.2099 15.7791 16.6083 16.065 16.2533 16.5581C15.8983 17.0512 15.8194 17.712 16.0363 18.3727C16.4604 19.6548 17.2 19.9408 17.6044 19.9901C17.6636 20 17.7227 20 17.7918 20C18.2257 20 18.8963 19.8126 19.5472 18.8363C20.0699 18.0769 20.1685 17.3175 19.8529 16.7159Z" fill="#CCCCCC"/>
</svg>
