<svg width="65" height="64" viewBox="0 0 65 64" fill="none" xmlns="http://www.w3.org/2000/svg">
<path opacity="0.4" d="M32.5714 58.6666C47.299 58.6666 59.2381 46.7275 59.2381 31.9999C59.2381 17.2723 47.299 5.33325 32.5714 5.33325C17.8439 5.33325 5.90479 17.2723 5.90479 31.9999C5.90479 46.7275 17.8439 58.6666 32.5714 58.6666Z" fill="white"/>
<path d="M35.9311 43.4133C35.4244 43.4133 34.9177 43.2266 34.5177 42.8266L25.1044 33.4133C24.3311 32.6399 24.3311 31.3599 25.1044 30.5866L34.5177 21.1733C35.2911 20.3999 36.5711 20.3999 37.3444 21.1733C38.1177 21.9466 38.1177 23.2266 37.3444 23.9999L29.3444 31.9999L37.3444 39.9999C38.1177 40.7733 38.1177 42.0533 37.3444 42.8266C36.9711 43.2266 36.4644 43.4133 35.9311 43.4133Z" fill="white"/>
</svg>
