<svg width="25" height="24" viewBox="0 0 25 24" fill="none" xmlns="http://www.w3.org/2000/svg">
<path d="M20.9715 1.19995H4.17148C2.85148 1.19995 1.77148 2.27995 1.77148 3.59995V20.4C1.77148 21.7212 2.85148 22.8 4.17148 22.8H12.5715V14.4H10.1715V11.43H12.5715V8.96995C12.5715 6.37315 14.0259 4.54915 17.0907 4.54915L19.2543 4.55155V7.67755H17.8179C16.6251 7.67755 16.1715 8.57275 16.1715 9.40315V11.4312H19.2531L18.5715 14.4H16.1715V22.8H20.9715C22.2915 22.8 23.3715 21.7212 23.3715 20.4V3.59995C23.3715 2.27995 22.2915 1.19995 20.9715 1.19995Z" fill="url(#paint0_linear_14_114)"/>
<defs>
<linearGradient id="paint0_linear_14_114" x1="1.77148" y1="1.19995" x2="24.9095" y2="2.99702" gradientUnits="userSpaceOnUse">
<stop stop-color="#FFC75C"/>
<stop offset="1" stop-color="#FFA800"/>
</linearGradient>
</defs>
</svg>
