<svg width="22" height="21" viewBox="0 0 22 21" fill="none" xmlns="http://www.w3.org/2000/svg">
<path opacity="0.4" d="M7.92139 5.46V15.5295C7.92139 18.9 10.0214 21 13.3814 21H16.1009C19.4609 21 21.5609 18.9 21.5609 15.54V5.46C21.5714 2.1 19.4714 0 16.1114 0H13.3814C10.0214 0 7.92139 2.1 7.92139 5.46Z" fill="url(#paint0_linear_45_264)"/>
<path d="M11.5228 6.42619L15.0403 9.94369C15.3448 10.2482 15.3448 10.7522 15.0403 11.0567L11.5228 14.5742C11.2183 14.8787 10.7143 14.8787 10.4098 14.5742C10.1053 14.2697 10.1053 13.7657 10.4098 13.4612L12.5833 11.2877H1.35879C0.928289 11.2877 0.571289 10.9307 0.571289 10.5002C0.571289 10.0697 0.928289 9.71269 1.35879 9.71269H12.5833L10.4098 7.53919C10.2523 7.38169 10.1788 7.18219 10.1788 6.98269C10.1788 6.78319 10.2523 6.58369 10.4098 6.42619C10.7143 6.11119 11.2078 6.11119 11.5228 6.42619Z" fill="url(#paint1_linear_45_264)"/>
<defs>
<linearGradient id="paint0_linear_45_264" x1="7.92139" y1="0" x2="22.583" y2="0.739604" gradientUnits="userSpaceOnUse">
<stop stop-color="#FFC75C"/>
<stop offset="1" stop-color="#FFA800"/>
</linearGradient>
<linearGradient id="paint1_linear_45_264" x1="0.571289" y1="6.18994" x2="16.1367" y2="8.25296" gradientUnits="userSpaceOnUse">
<stop stop-color="#FFC75C"/>
<stop offset="1" stop-color="#FFA800"/>
</linearGradient>
</defs>
</svg>
