<svg width="101" height="100" viewBox="0 0 101 100" fill="none" xmlns="http://www.w3.org/2000/svg">
<path opacity="0.4" d="M74.6205 84.3776H26.5702C24.4548 84.3776 22.5409 83.0177 21.8357 81.0534L0.882967 22.3756C-0.77915 17.6915 4.55977 13.7125 8.53878 16.5834L28.6856 30.9884C31.3551 32.9024 35.183 31.7439 36.3415 28.6715L45.8609 3.28646C47.4726 -1.09549 53.6678 -1.09549 55.2795 3.28646L64.7989 28.6715C65.9574 31.7943 69.7349 32.9024 72.4547 30.9884L92.6016 16.5834C96.631 13.7125 101.92 17.7418 100.257 22.3756L79.3047 81.0534C78.6499 83.0177 76.7359 84.3776 74.6205 84.3776Z" fill="url(#paint0_linear_14_583)"/>
<path d="M75.7785 99.5886H25.4113C23.3463 99.5886 21.6338 97.8762 21.6338 95.8111C21.6338 93.7461 23.3463 92.0336 25.4113 92.0336H75.7785C77.8436 92.0336 79.556 93.7461 79.556 95.8111C79.556 97.8762 77.8436 99.5886 75.7785 99.5886Z" fill="url(#paint1_linear_14_583)"/>
<path d="M63.1872 63.0722H38.0036C35.9386 63.0722 34.2261 61.3597 34.2261 59.2946C34.2261 57.2296 35.9386 55.5171 38.0036 55.5171H63.1872C65.2523 55.5171 66.9647 57.2296 66.9647 59.2946C66.9647 61.3597 65.2523 63.0722 63.1872 63.0722Z" fill="url(#paint2_linear_14_583)"/>
<defs>
<linearGradient id="paint0_linear_14_583" x1="0.571289" y1="0" x2="107.433" y2="9.83629" gradientUnits="userSpaceOnUse">
<stop stop-color="#FFC75C"/>
<stop offset="1" stop-color="#FFA800"/>
</linearGradient>
<linearGradient id="paint1_linear_14_583" x1="21.6338" y1="92.0336" x2="67.7159" y2="119.473" gradientUnits="userSpaceOnUse">
<stop stop-color="#FFC75C"/>
<stop offset="1" stop-color="#FFA800"/>
</linearGradient>
<linearGradient id="paint2_linear_14_583" x1="34.2261" y1="55.5171" x2="65.9177" y2="66.1832" gradientUnits="userSpaceOnUse">
<stop stop-color="#FFC75C"/>
<stop offset="1" stop-color="#FFA800"/>
</linearGradient>
</defs>
</svg>
