<svg width="101" height="100" viewBox="0 0 101 100" fill="none" xmlns="http://www.w3.org/2000/svg">
<path opacity="0.4" d="M19.4066 69.7533C19.9546 67.3119 18.9582 63.8243 17.2143 62.0804L5.10717 49.9733C1.32057 46.1867 -0.174142 42.151 0.92198 38.6633C2.06792 35.1757 5.60541 32.7841 10.8867 31.8873L26.4317 29.2965C28.6738 28.8979 31.4141 26.9049 32.4604 24.8621L41.0301 7.67297C43.5212 2.74043 46.9093 0.00012207 50.5962 0.00012207C54.2832 0.00012207 57.6712 2.74043 60.1624 7.67297L68.732 24.8621C69.3797 26.1576 70.725 27.4032 72.1699 28.2502L18.5097 81.9103C17.8122 82.6078 16.6164 81.9601 16.8157 80.9636L19.4066 69.7533Z" fill="url(#paint0_linear_14_533)"/>
<path d="M83.9781 62.0804C82.1844 63.874 81.188 67.3119 81.7859 69.7532L85.2237 84.7502C86.6686 90.9781 85.7718 95.6615 82.6827 97.9036C81.4371 98.8004 79.9424 99.2489 78.1986 99.2489C75.6575 99.2489 72.6681 98.3022 69.3798 96.3591L54.7814 87.6898C52.4895 86.3445 48.7029 86.3445 46.411 87.6898L31.8127 96.3591C26.2823 99.5976 21.549 100.146 18.5098 97.9036C17.3638 97.0566 16.5168 95.9107 15.9688 94.416L76.5544 33.8303C78.8463 31.5385 82.0848 30.4922 85.2237 31.0402L90.2559 31.8872C95.5372 32.784 99.0747 35.1756 100.221 38.6632C101.317 42.1509 99.822 46.1866 96.0354 49.9732L83.9781 62.0804Z" fill="url(#paint1_linear_14_533)"/>
<defs>
<linearGradient id="paint0_linear_14_533" x1="0.571289" y1="0.00012207" x2="77.3792" y2="5.19609" gradientUnits="userSpaceOnUse">
<stop stop-color="#FFC75C"/>
<stop offset="1" stop-color="#FFA800"/>
</linearGradient>
<linearGradient id="paint1_linear_14_533" x1="15.9688" y1="30.8971" x2="106.308" y2="39.58" gradientUnits="userSpaceOnUse">
<stop stop-color="#FFC75C"/>
<stop offset="1" stop-color="#FFA800"/>
</linearGradient>
</defs>
</svg>
